solid JSCAD
facet normal -1 0 0
outer loop
vertex -2.50002 -2.50002 0
vertex -2.50002 -2.50002 6.999976666666667
vertex -2.50002 2.50002 6.999976666666667
endloop
endfacet
facet normal -1 0 0
outer loop
vertex -2.50002 -2.50002 0
vertex -2.50002 2.50002 6.999976666666667
vertex -2.50002 2.50002 0
endloop
endfacet
facet normal 1 0 0
outer loop
vertex 2.50002 -2.50002 0
vertex 2.50002 2.50002 0
vertex 2.50002 2.50002 6.999976666666667
endloop
endfacet
facet normal 1 0 0
outer loop
vertex 2.50002 -2.50002 0
vertex 2.50002 2.50002 6.999976666666667
vertex 2.50002 -2.50002 6.999976666666667
endloop
endfacet
facet normal 0 -1 0
outer loop
vertex -2.50002 -2.50002 0
vertex 2.50002 -2.50002 0
vertex 2.50002 -2.50002 6.999976666666667
endloop
endfacet
facet normal 0 -1 0
outer loop
vertex -2.50002 -2.50002 0
vertex 2.50002 -2.50002 6.999976666666667
vertex -2.50002 -2.50002 6.999976666666667
endloop
endfacet
facet normal 0 1 0
outer loop
vertex -2.50002 2.50002 0
vertex -2.50002 2.50002 6.999976666666667
vertex 2.50002 2.50002 6.999976666666667
endloop
endfacet
facet normal 0 1 0
outer loop
vertex -2.50002 2.50002 0
vertex 2.50002 2.50002 6.999976666666667
vertex 2.50002 2.50002 0
endloop
endfacet
facet normal 0 0 -1
outer loop
vertex -2.50002 -2.50002 0
vertex -2.50002 2.50002 0
vertex 2.50002 2.50002 0
endloop
endfacet
facet normal 0 0 -1
outer loop
vertex -2.50002 -2.50002 0
vertex 2.50002 2.50002 0
vertex 2.50002 -2.50002 0
endloop
endfacet
facet normal 0 0 1
outer loop
vertex -2.50002 -2.50002 6.999976666666667
vertex 2.50002 -2.50002 6.999976666666667
vertex 2.50002 2.50002 6.999976666666667
endloop
endfacet
facet normal 0 0 1
outer loop
vertex -2.50002 -2.50002 6.999976666666667
vertex 2.50002 2.50002 6.999976666666667
vertex -2.50002 2.50002 6.999976666666667
endloop
endfacet
facet normal -1 0 0
outer loop
vertex 3.5000166666666668 -2.50002 0
vertex 3.5000166666666668 -2.50002 6.999976666666667
vertex 3.5000166666666668 2.50002 6.999976666666667
endloop
endfacet
facet normal -1 0 0
outer loop
vertex 3.5000166666666668 -2.50002 0
vertex 3.5000166666666668 2.50002 6.999976666666667
vertex 3.5000166666666668 2.50002 0
endloop
endfacet
facet normal 1 0 0
outer loop
vertex 8.5 -2.50002 0
vertex 8.5 2.50002 0
vertex 8.5 2.50002 6.999976666666667
endloop
endfacet
facet normal 1 0 0
outer loop
vertex 8.5 -2.50002 0
vertex 8.5 2.50002 6.999976666666667
vertex 8.5 -2.50002 6.999976666666667
endloop
endfacet
facet normal 0 -1 0
outer loop
vertex 3.5000166666666668 -2.50002 0
vertex 8.5 -2.50002 0
vertex 8.5 -2.50002 6.999976666666667
endloop
endfacet
facet normal 0 -1 0
outer loop
vertex 3.5000166666666668 -2.50002 0
vertex 8.5 -2.50002 6.999976666666667
vertex 3.5000166666666668 -2.50002 6.999976666666667
endloop
endfacet
facet normal 0 1 0
outer loop
vertex 3.5000166666666668 2.50002 0
vertex 3.5000166666666668 2.50002 6.999976666666667
vertex 8.5 2.50002 6.999976666666667
endloop
endfacet
facet normal 0 1 0
outer loop
vertex 3.5000166666666668 2.50002 0
vertex 8.5 2.50002 6.999976666666667
vertex 8.5 2.50002 0
endloop
endfacet
facet normal 0 0 -1
outer loop
vertex 3.5000166666666668 -2.50002 0
vertex 3.5000166666666668 2.50002 0
vertex 8.5 2.50002 0
endloop
endfacet
facet normal 0 0 -1
outer loop
vertex 3.5000166666666668 -2.50002 0
vertex 8.5 2.50002 0
vertex 8.5 -2.50002 0
endloop
endfacet
facet normal 0 0 1
outer loop
vertex 3.5000166666666668 -2.50002 6.999976666666667
vertex 8.5 -2.50002 6.999976666666667
vertex 8.5 2.50002 6.999976666666667
endloop
endfacet
facet normal 0 0 1
outer loop
vertex 3.5000166666666668 -2.50002 6.999976666666667
vertex 8.5 2.50002 6.999976666666667
vertex 3.5000166666666668 2.50002 6.999976666666667
endloop
endfacet
facet normal -0.9999999999999999 0 0
outer loop
vertex 9.500000000000002 -2.5000000000000004 0
vertex 9.500000000000002 -2.5000000000000004 6.000000000000001
vertex 9.500000000000002 2.5000000000000004 6.000000000000001
endloop
endfacet
facet normal -0.9999999999999999 0 0
outer loop
vertex 9.500000000000002 -2.5000000000000004 0
vertex 9.500000000000002 2.5000000000000004 6.000000000000001
vertex 9.500000000000002 2.5000000000000004 0
endloop
endfacet
facet normal 0.9999999999999999 0 0
outer loop
vertex 14.500000000000002 -2.5000000000000004 0
vertex 14.500000000000002 2.5000000000000004 0
vertex 14.500000000000002 2.5000000000000004 6.000000000000001
endloop
endfacet
facet normal 0.9999999999999999 0 0
outer loop
vertex 14.500000000000002 -2.5000000000000004 0
vertex 14.500000000000002 2.5000000000000004 6.000000000000001
vertex 14.500000000000002 -2.5000000000000004 6.000000000000001
endloop
endfacet
facet normal 0 -0.9999999999999999 0
outer loop
vertex 9.500000000000002 -2.5000000000000004 0
vertex 14.500000000000002 -2.5000000000000004 0
vertex 14.500000000000002 -2.5000000000000004 6.000000000000001
endloop
endfacet
facet normal 0 -0.9999999999999999 0
outer loop
vertex 9.500000000000002 -2.5000000000000004 0
vertex 14.500000000000002 -2.5000000000000004 6.000000000000001
vertex 9.500000000000002 -2.5000000000000004 6.000000000000001
endloop
endfacet
facet normal 0 0.9999999999999999 0
outer loop
vertex 9.500000000000002 2.5000000000000004 0
vertex 9.500000000000002 2.5000000000000004 6.000000000000001
vertex 14.500000000000002 2.5000000000000004 6.000000000000001
endloop
endfacet
facet normal 0 0.9999999999999999 0
outer loop
vertex 9.500000000000002 2.5000000000000004 0
vertex 14.500000000000002 2.5000000000000004 6.000000000000001
vertex 14.500000000000002 2.5000000000000004 0
endloop
endfacet
facet normal 0 0 -1
outer loop
vertex 9.500000000000002 -2.5000000000000004 0
vertex 9.500000000000002 2.5000000000000004 0
vertex 14.500000000000002 2.5000000000000004 0
endloop
endfacet
facet normal 0 0 -1
outer loop
vertex 9.500000000000002 -2.5000000000000004 0
vertex 14.500000000000002 2.5000000000000004 0
vertex 14.500000000000002 -2.5000000000000004 0
endloop
endfacet
facet normal 0 0 1
outer loop
vertex 9.500000000000002 -2.5000000000000004 6.000000000000001
vertex 14.500000000000002 -2.5000000000000004 6.000000000000001
vertex 14.500000000000002 2.5000000000000004 6.000000000000001
endloop
endfacet
facet normal 0 0 1
outer loop
vertex 9.500000000000002 -2.5000000000000004 6.000000000000001
vertex 14.500000000000002 2.5000000000000004 6.000000000000001
vertex 9.500000000000002 2.5000000000000004 6.000000000000001
endloop
endfacet
facet normal -1 0 0
outer loop
vertex 15.499976666666667 -2.50002 0
vertex 15.499976666666667 -2.50002 6.999976666666667
vertex 15.499976666666667 2.50002 6.999976666666667
endloop
endfacet
facet normal -1 0 0
outer loop
vertex 15.499976666666667 -2.50002 0
vertex 15.499976666666667 2.50002 6.999976666666667
vertex 15.499976666666667 2.50002 0
endloop
endfacet
facet normal 1 0 0
outer loop
vertex 20.500016666666667 -2.50002 0
vertex 20.500016666666667 2.50002 0
vertex 20.500016666666667 2.50002 6.999976666666667
endloop
endfacet
facet normal 1 0 0
outer loop
vertex 20.500016666666667 -2.50002 0
vertex 20.500016666666667 2.50002 6.999976666666667
vertex 20.500016666666667 -2.50002 6.999976666666667
endloop
endfacet
facet normal 0 -1 0
outer loop
vertex 15.499976666666667 -2.50002 0
vertex 20.500016666666667 -2.50002 0
vertex 20.500016666666667 -2.50002 6.999976666666667
endloop
endfacet
facet normal 0 -1 0
outer loop
vertex 15.499976666666667 -2.50002 0
vertex 20.500016666666667 -2.50002 6.999976666666667
vertex 15.499976666666667 -2.50002 6.999976666666667
endloop
endfacet
facet normal 0 1 0
outer loop
vertex 15.499976666666667 2.50002 0
vertex 15.499976666666667 2.50002 6.999976666666667
vertex 20.500016666666667 2.50002 6.999976666666667
endloop
endfacet
facet normal 0 1 0
outer loop
vertex 15.499976666666667 2.50002 0
vertex 20.500016666666667 2.50002 6.999976666666667
vertex 20.500016666666667 2.50002 0
endloop
endfacet
facet normal 0 0 -1
outer loop
vertex 15.499976666666667 -2.50002 0
vertex 15.499976666666667 2.50002 0
vertex 20.500016666666667 2.50002 0
endloop
endfacet
facet normal 0 0 -1
outer loop
vertex 15.499976666666667 -2.50002 0
vertex 20.500016666666667 2.50002 0
vertex 20.500016666666667 -2.50002 0
endloop
endfacet
facet normal 0 0 1
outer loop
vertex 15.499976666666667 -2.50002 6.999976666666667
vertex 20.500016666666667 -2.50002 6.999976666666667
vertex 20.500016666666667 2.50002 6.999976666666667
endloop
endfacet
facet normal 0 0 1
outer loop
vertex 15.499976666666667 -2.50002 6.999976666666667
vertex 20.500016666666667 2.50002 6.999976666666667
vertex 15.499976666666667 2.50002 6.999976666666667
endloop
endfacet
facet normal -1 0 0
outer loop
vertex 21.5 -2.5 0
vertex 21.5 -2.5 5
vertex 21.5 2.5 5
endloop
endfacet
facet normal -1 0 0
outer loop
vertex 21.5 -2.5 0
vertex 21.5 2.5 5
vertex 21.5 2.5 0
endloop
endfacet
facet normal 1 0 0
outer loop
vertex 26.5 -2.5 0
vertex 26.5 2.5 0
vertex 26.5 2.5 5
endloop
endfacet
facet normal 1 0 0
outer loop
vertex 26.5 -2.5 0
vertex 26.5 2.5 5
vertex 26.5 -2.5 5
endloop
endfacet
facet normal 0 -1 0
outer loop
vertex 21.5 -2.5 0
vertex 26.5 -2.5 0
vertex 26.5 -2.5 5
endloop
endfacet
facet normal 0 -1 0
outer loop
vertex 21.5 -2.5 0
vertex 26.5 -2.5 5
vertex 21.5 -2.5 5
endloop
endfacet
facet normal 0 1 0
outer loop
vertex 21.5 2.5 0
vertex 21.5 2.5 5
vertex 26.5 2.5 5
endloop
endfacet
facet normal 0 1 0
outer loop
vertex 21.5 2.5 0
vertex 26.5 2.5 5
vertex 26.5 2.5 0
endloop
endfacet
facet normal 0 0 -1
outer loop
vertex 21.5 -2.5 0
vertex 21.5 2.5 0
vertex 26.5 2.5 0
endloop
endfacet
facet normal 0 0 -1
outer loop
vertex 21.5 -2.5 0
vertex 26.5 2.5 0
vertex 26.5 -2.5 0
endloop
endfacet
facet normal 0 0 1
outer loop
vertex 21.5 -2.5 5
vertex 26.5 -2.5 5
vertex 26.5 2.5 5
endloop
endfacet
facet normal 0 0 1
outer loop
vertex 21.5 -2.5 5
vertex 26.5 2.5 5
vertex 21.5 2.5 5
endloop
endfacet
facet normal -1 0 0
outer loop
vertex -2.5 3.5 0
vertex -2.5 3.5 5
vertex -2.5 8.5 5
endloop
endfacet
facet normal -1 0 0
outer loop
vertex -2.5 3.5 0
vertex -2.5 8.5 5
vertex -2.5 8.5 0
endloop
endfacet
facet normal 1 0 0
outer loop
vertex 2.5 3.5 0
vertex 2.5 8.5 0
vertex 2.5 8.5 5
endloop
endfacet
facet normal 1 0 0
outer loop
vertex 2.5 3.5 0
vertex 2.5 8.5 5
vertex 2.5 3.5 5
endloop
endfacet
facet normal 0 -1 0
outer loop
vertex -2.5 3.5 0
vertex 2.5 3.5 0
vertex 2.5 3.5 5
endloop
endfacet
facet normal 0 -1 0
outer loop
vertex -2.5 3.5 0
vertex 2.5 3.5 5
vertex -2.5 3.5 5
endloop
endfacet
facet normal 0 1 0
outer loop
vertex -2.5 8.5 0
vertex -2.5 8.5 5
vertex 2.5 8.5 5
endloop
endfacet
facet normal 0 1 0
outer loop
vertex -2.5 8.5 0
vertex 2.5 8.5 5
vertex 2.5 8.5 0
endloop
endfacet
facet normal 0 0 -1
outer loop
vertex -2.5 3.5 0
vertex -2.5 8.5 0
vertex 2.5 8.5 0
endloop
endfacet
facet normal 0 0 -1
outer loop
vertex -2.5 3.5 0
vertex 2.5 8.5 0
vertex 2.5 3.5 0
endloop
endfacet
facet normal 0 0 1
outer loop
vertex -2.5 3.5 5
vertex 2.5 3.5 5
vertex 2.5 8.5 5
endloop
endfacet
facet normal 0 0 1
outer loop
vertex -2.5 3.5 5
vertex 2.5 8.5 5
vertex -2.5 8.5 5
endloop
endfacet
facet normal -1 0 0
outer loop
vertex 3.5000166666666668 3.5000166666666668 0
vertex 3.5000166666666668 3.5000166666666668 6.999976666666667
vertex 3.5000166666666668 8.5 6.999976666666667
endloop
endfacet
facet normal -1 0 0
outer loop
vertex 3.5000166666666668 3.5000166666666668 0
vertex 3.5000166666666668 8.5 6.999976666666667
vertex 3.5000166666666668 8.5 0
endloop
endfacet
facet normal 1 0 0
outer loop
vertex 8.5 3.5000166666666668 0
vertex 8.5 8.5 0
vertex 8.5 8.5 6.999976666666667
endloop
endfacet
facet normal 1 0 0
outer loop
vertex 8.5 3.5000166666666668 0
vertex 8.5 8.5 6.999976666666667
vertex 8.5 3.5000166666666668 6.999976666666667
endloop
endfacet
facet normal 0 -1 0
outer loop
vertex 3.5000166666666668 3.5000166666666668 0
vertex 8.5 3.5000166666666668 0
vertex 8.5 3.5000166666666668 6.999976666666667
endloop
endfacet
facet normal 0 -1 0
outer loop
vertex 3.5000166666666668 3.5000166666666668 0
vertex 8.5 3.5000166666666668 6.999976666666667
vertex 3.5000166666666668 3.5000166666666668 6.999976666666667
endloop
endfacet
facet normal 0 1 0
outer loop
vertex 3.5000166666666668 8.5 0
vertex 3.5000166666666668 8.5 6.999976666666667
vertex 8.5 8.5 6.999976666666667
endloop
endfacet
facet normal 0 1 0
outer loop
vertex 3.5000166666666668 8.5 0
vertex 8.5 8.5 6.999976666666667
vertex 8.5 8.5 0
endloop
endfacet
facet normal 0 0 -1
outer loop
vertex 3.5000166666666668 3.5000166666666668 0
vertex 3.5000166666666668 8.5 0
vertex 8.5 8.5 0
endloop
endfacet
facet normal 0 0 -1
outer loop
vertex 3.5000166666666668 3.5000166666666668 0
vertex 8.5 8.5 0
vertex 8.5 3.5000166666666668 0
endloop
endfacet
facet normal 0 0 1
outer loop
vertex 3.5000166666666668 3.5000166666666668 6.999976666666667
vertex 8.5 3.5000166666666668 6.999976666666667
vertex 8.5 8.5 6.999976666666667
endloop
endfacet
facet normal 0 0 1
outer loop
vertex 3.5000166666666668 3.5000166666666668 6.999976666666667
vertex 8.5 8.5 6.999976666666667
vertex 3.5000166666666668 8.5 6.999976666666667
endloop
endfacet
facet normal -1 0 0
outer loop
vertex 9.49998 3.49998 0
vertex 9.49998 3.49998 7.99998
vertex 9.49998 8.500020000000001 7.99998
endloop
endfacet
facet normal -1 0 0
outer loop
vertex 9.49998 3.49998 0
vertex 9.49998 8.500020000000001 7.99998
vertex 9.49998 8.500020000000001 0
endloop
endfacet
facet normal 1 0 0
outer loop
vertex 14.500020000000001 3.49998 0
vertex 14.500020000000001 8.500020000000001 0
vertex 14.500020000000001 8.500020000000001 7.99998
endloop
endfacet
facet normal 1 0 0
outer loop
vertex 14.500020000000001 3.49998 0
vertex 14.500020000000001 8.500020000000001 7.99998
vertex 14.500020000000001 3.49998 7.99998
endloop
endfacet
facet normal 0 -1 0
outer loop
vertex 9.49998 3.49998 0
vertex 14.500020000000001 3.49998 0
vertex 14.500020000000001 3.49998 7.99998
endloop
endfacet
facet normal 0 -1 0
outer loop
vertex 9.49998 3.49998 0
vertex 14.500020000000001 3.49998 7.99998
vertex 9.49998 3.49998 7.99998
endloop
endfacet
facet normal 0 1 0
outer loop
vertex 9.49998 8.500020000000001 0
vertex 9.49998 8.500020000000001 7.99998
vertex 14.500020000000001 8.500020000000001 7.99998
endloop
endfacet
facet normal 0 1 0
outer loop
vertex 9.49998 8.500020000000001 0
vertex 14.500020000000001 8.500020000000001 7.99998
vertex 14.500020000000001 8.500020000000001 0
endloop
endfacet
facet normal 0 0 -1
outer loop
vertex 9.49998 3.49998 0
vertex 9.49998 8.500020000000001 0
vertex 14.500020000000001 8.500020000000001 0
endloop
endfacet
facet normal 0 0 -1
outer loop
vertex 9.49998 3.49998 0
vertex 14.500020000000001 8.500020000000001 0
vertex 14.500020000000001 3.49998 0
endloop
endfacet
facet normal 0 0 1
outer loop
vertex 9.49998 3.49998 7.99998
vertex 14.500020000000001 3.49998 7.99998
vertex 14.500020000000001 8.500020000000001 7.99998
endloop
endfacet
facet normal 0 0 1
outer loop
vertex 9.49998 3.49998 7.99998
vertex 14.500020000000001 8.500020000000001 7.99998
vertex 9.49998 8.500020000000001 7.99998
endloop
endfacet
facet normal -1 0 0
outer loop
vertex 15.499976666666667 3.5000166666666668 0
vertex 15.499976666666667 3.5000166666666668 6.999976666666667
vertex 15.499976666666667 8.5 6.999976666666667
endloop
endfacet
facet normal -1 0 0
outer loop
vertex 15.499976666666667 3.5000166666666668 0
vertex 15.499976666666667 8.5 6.999976666666667
vertex 15.499976666666667 8.5 0
endloop
endfacet
facet normal 1 0 0
outer loop
vertex 20.500016666666667 3.5000166666666668 0
vertex 20.500016666666667 8.5 0
vertex 20.500016666666667 8.5 6.999976666666667
endloop
endfacet
facet normal 1 0 0
outer loop
vertex 20.500016666666667 3.5000166666666668 0
vertex 20.500016666666667 8.5 6.999976666666667
vertex 20.500016666666667 3.5000166666666668 6.999976666666667
endloop
endfacet
facet normal 0 -1 0
outer loop
vertex 15.499976666666667 3.5000166666666668 0
vertex 20.500016666666667 3.5000166666666668 0
vertex 20.500016666666667 3.5000166666666668 6.999976666666667
endloop
endfacet
facet normal 0 -1 0
outer loop
vertex 15.499976666666667 3.5000166666666668 0
vertex 20.500016666666667 3.5000166666666668 6.999976666666667
vertex 15.499976666666667 3.5000166666666668 6.999976666666667
endloop
endfacet
facet normal 0 1 0
outer loop
vertex 15.499976666666667 8.5 0
vertex 15.499976666666667 8.5 6.999976666666667
vertex 20.500016666666667 8.5 6.999976666666667
endloop
endfacet
facet normal 0 1 0
outer loop
vertex 15.499976666666667 8.5 0
vertex 20.500016666666667 8.5 6.999976666666667
vertex 20.500016666666667 8.5 0
endloop
endfacet
facet normal 0 0 -1
outer loop
vertex 15.499976666666667 3.5000166666666668 0
vertex 15.499976666666667 8.5 0
vertex 20.500016666666667 8.5 0
endloop
endfacet
facet normal 0 0 -1
outer loop
vertex 15.499976666666667 3.5000166666666668 0
vertex 20.500016666666667 8.5 0
vertex 20.500016666666667 3.5000166666666668 0
endloop
endfacet
facet normal 0 0 1
outer loop
vertex 15.499976666666667 3.5000166666666668 6.999976666666667
vertex 20.500016666666667 3.5000166666666668 6.999976666666667
vertex 20.500016666666667 8.5 6.999976666666667
endloop
endfacet
facet normal 0 0 1
outer loop
vertex 15.499976666666667 3.5000166666666668 6.999976666666667
vertex 20.500016666666667 8.5 6.999976666666667
vertex 15.499976666666667 8.5 6.999976666666667
endloop
endfacet
facet normal -1 0 0
outer loop
vertex 21.500000000000004 3.5000000000000004 0
vertex 21.500000000000004 3.5000000000000004 6.000000000000001
vertex 21.500000000000004 8.500000000000002 6.000000000000001
endloop
endfacet
facet normal -1 0 0
outer loop
vertex 21.500000000000004 3.5000000000000004 0
vertex 21.500000000000004 8.500000000000002 6.000000000000001
vertex 21.500000000000004 8.500000000000002 0
endloop
endfacet
facet normal 1 0 0
outer loop
vertex 26.500000000000004 3.5000000000000004 0
vertex 26.500000000000004 8.500000000000002 0
vertex 26.500000000000004 8.500000000000002 6.000000000000001
endloop
endfacet
facet normal 1 0 0
outer loop
vertex 26.500000000000004 3.5000000000000004 0
vertex 26.500000000000004 8.500000000000002 6.000000000000001
vertex 26.500000000000004 3.5000000000000004 6.000000000000001
endloop
endfacet
facet normal 0 -0.9999999999999999 0
outer loop
vertex 21.500000000000004 3.5000000000000004 0
vertex 26.500000000000004 3.5000000000000004 0
vertex 26.500000000000004 3.5000000000000004 6.000000000000001
endloop
endfacet
facet normal 0 -0.9999999999999999 0
outer loop
vertex 21.500000000000004 3.5000000000000004 0
vertex 26.500000000000004 3.5000000000000004 6.000000000000001
vertex 21.500000000000004 3.5000000000000004 6.000000000000001
endloop
endfacet
facet normal 0 0.9999999999999999 0
outer loop
vertex 21.500000000000004 8.500000000000002 0
vertex 21.500000000000004 8.500000000000002 6.000000000000001
vertex 26.500000000000004 8.500000000000002 6.000000000000001
endloop
endfacet
facet normal 0 0.9999999999999999 0
outer loop
vertex 21.500000000000004 8.500000000000002 0
vertex 26.500000000000004 8.500000000000002 6.000000000000001
vertex 26.500000000000004 8.500000000000002 0
endloop
endfacet
facet normal 0 0 -1
outer loop
vertex 21.500000000000004 3.5000000000000004 0
vertex 21.500000000000004 8.500000000000002 0
vertex 26.500000000000004 8.500000000000002 0
endloop
endfacet
facet normal 0 0 -1
outer loop
vertex 21.500000000000004 3.5000000000000004 0
vertex 26.500000000000004 8.500000000000002 0
vertex 26.500000000000004 3.5000000000000004 0
endloop
endfacet
facet normal 0 0 1
outer loop
vertex 21.500000000000004 3.5000000000000004 6.000000000000001
vertex 26.500000000000004 3.5000000000000004 6.000000000000001
vertex 26.500000000000004 8.500000000000002 6.000000000000001
endloop
endfacet
facet normal 0 0 1
outer loop
vertex 21.500000000000004 3.5000000000000004 6.000000000000001
vertex 26.500000000000004 8.500000000000002 6.000000000000001
vertex 21.500000000000004 8.500000000000002 6.000000000000001
endloop
endfacet
facet normal -1 0 0
outer loop
vertex -2.50002 9.499996666666668 0
vertex -2.50002 9.499996666666668 6.999976666666667
vertex -2.50002 14.49998 6.999976666666667
endloop
endfacet
facet normal -1 0 0
outer loop
vertex -2.50002 9.499996666666668 0
vertex -2.50002 14.49998 6.999976666666667
vertex -2.50002 14.49998 0
endloop
endfacet
facet normal 1 0 0
outer loop
vertex 2.50002 9.499996666666668 0
vertex 2.50002 14.49998 0
vertex 2.50002 14.49998 6.999976666666667
endloop
endfacet
facet normal 1 0 0
outer loop
vertex 2.50002 9.499996666666668 0
vertex 2.50002 14.49998 6.999976666666667
vertex 2.50002 9.499996666666668 6.999976666666667
endloop
endfacet
facet normal 0 -1 0
outer loop
vertex -2.50002 9.499996666666668 0
vertex 2.50002 9.499996666666668 0
vertex 2.50002 9.499996666666668 6.999976666666667
endloop
endfacet
facet normal 0 -1 0
outer loop
vertex -2.50002 9.499996666666668 0
vertex 2.50002 9.499996666666668 6.999976666666667
vertex -2.50002 9.499996666666668 6.999976666666667
endloop
endfacet
facet normal 0 1 0
outer loop
vertex -2.50002 14.49998 0
vertex -2.50002 14.49998 6.999976666666667
vertex 2.50002 14.49998 6.999976666666667
endloop
endfacet
facet normal 0 1 0
outer loop
vertex -2.50002 14.49998 0
vertex 2.50002 14.49998 6.999976666666667
vertex 2.50002 14.49998 0
endloop
endfacet
facet normal 0 0 -1
outer loop
vertex -2.50002 9.499996666666668 0
vertex -2.50002 14.49998 0
vertex 2.50002 14.49998 0
endloop
endfacet
facet normal 0 0 -1
outer loop
vertex -2.50002 9.499996666666668 0
vertex 2.50002 14.49998 0
vertex 2.50002 9.499996666666668 0
endloop
endfacet
facet normal 0 0 1
outer loop
vertex -2.50002 9.499996666666668 6.999976666666667
vertex 2.50002 9.499996666666668 6.999976666666667
vertex 2.50002 14.49998 6.999976666666667
endloop
endfacet
facet normal 0 0 1
outer loop
vertex -2.50002 9.499996666666668 6.999976666666667
vertex 2.50002 14.49998 6.999976666666667
vertex -2.50002 14.49998 6.999976666666667
endloop
endfacet
facet normal -0.9999999999999999 0 0
outer loop
vertex 3.5000000000000004 9.500000000000002 0
vertex 3.5000000000000004 9.500000000000002 6.000000000000001
vertex 3.5000000000000004 14.500000000000002 6.000000000000001
endloop
endfacet
facet normal -0.9999999999999999 0 0
outer loop
vertex 3.5000000000000004 9.500000000000002 0
vertex 3.5000000000000004 14.500000000000002 6.000000000000001
vertex 3.5000000000000004 14.500000000000002 0
endloop
endfacet
facet normal 0.9999999999999999 0 0
outer loop
vertex 8.500000000000002 9.500000000000002 0
vertex 8.500000000000002 14.500000000000002 0
vertex 8.500000000000002 14.500000000000002 6.000000000000001
endloop
endfacet
facet normal 0.9999999999999999 0 0
outer loop
vertex 8.500000000000002 9.500000000000002 0
vertex 8.500000000000002 14.500000000000002 6.000000000000001
vertex 8.500000000000002 9.500000000000002 6.000000000000001
endloop
endfacet
facet normal 0 -1 0
outer loop
vertex 3.5000000000000004 9.500000000000002 0
vertex 8.500000000000002 9.500000000000002 0
vertex 8.500000000000002 9.500000000000002 6.000000000000001
endloop
endfacet
facet normal 0 -1 0
outer loop
vertex 3.5000000000000004 9.500000000000002 0
vertex 8.500000000000002 9.500000000000002 6.000000000000001
vertex 3.5000000000000004 9.500000000000002 6.000000000000001
endloop
endfacet
facet normal 0 1 0
outer loop
vertex 3.5000000000000004 14.500000000000002 0
vertex 3.5000000000000004 14.500000000000002 6.000000000000001
vertex 8.500000000000002 14.500000000000002 6.000000000000001
endloop
endfacet
facet normal 0 1 0
outer loop
vertex 3.5000000000000004 14.500000000000002 0
vertex 8.500000000000002 14.500000000000002 6.000000000000001
vertex 8.500000000000002 14.500000000000002 0
endloop
endfacet
facet normal 0 0 -1
outer loop
vertex 3.5000000000000004 9.500000000000002 0
vertex 3.5000000000000004 14.500000000000002 0
vertex 8.500000000000002 14.500000000000002 0
endloop
endfacet
facet normal 0 0 -1
outer loop
vertex 3.5000000000000004 9.500000000000002 0
vertex 8.500000000000002 14.500000000000002 0
vertex 8.500000000000002 9.500000000000002 0
endloop
endfacet
facet normal 0 0 1
outer loop
vertex 3.5000000000000004 9.500000000000002 6.000000000000001
vertex 8.500000000000002 9.500000000000002 6.000000000000001
vertex 8.500000000000002 14.500000000000002 6.000000000000001
endloop
endfacet
facet normal 0 0 1
outer loop
vertex 3.5000000000000004 9.500000000000002 6.000000000000001
vertex 8.500000000000002 14.500000000000002 6.000000000000001
vertex 3.5000000000000004 14.500000000000002 6.000000000000001
endloop
endfacet
facet normal -1 0 0
outer loop
vertex 9.5 9.5 0
vertex 9.5 9.5 5
vertex 9.5 14.5 5
endloop
endfacet
facet normal -1 0 0
outer loop
vertex 9.5 9.5 0
vertex 9.5 14.5 5
vertex 9.5 14.5 0
endloop
endfacet
facet normal 1 0 0
outer loop
vertex 14.5 9.5 0
vertex 14.5 14.5 0
vertex 14.5 14.5 5
endloop
endfacet
facet normal 1 0 0
outer loop
vertex 14.5 9.5 0
vertex 14.5 14.5 5
vertex 14.5 9.5 5
endloop
endfacet
facet normal 0 -1 0
outer loop
vertex 9.5 9.5 0
vertex 14.5 9.5 0
vertex 14.5 9.5 5
endloop
endfacet
facet normal 0 -1 0
outer loop
vertex 9.5 9.5 0
vertex 14.5 9.5 5
vertex 9.5 9.5 5
endloop
endfacet
facet normal 0 1 0
outer loop
vertex 9.5 14.5 0
vertex 9.5 14.5 5
vertex 14.5 14.5 5
endloop
endfacet
facet normal 0 1 0
outer loop
vertex 9.5 14.5 0
vertex 14.5 14.5 5
vertex 14.5 14.5 0
endloop
endfacet
facet normal 0 0 -1
outer loop
vertex 9.5 9.5 0
vertex 9.5 14.5 0
vertex 14.5 14.5 0
endloop
endfacet
facet normal 0 0 -1
outer loop
vertex 9.5 9.5 0
vertex 14.5 14.5 0
vertex 14.5 9.5 0
endloop
endfacet
facet normal 0 0 1
outer loop
vertex 9.5 9.5 5
vertex 14.5 9.5 5
vertex 14.5 14.5 5
endloop
endfacet
facet normal 0 0 1
outer loop
vertex 9.5 9.5 5
vertex 14.5 14.5 5
vertex 9.5 14.5 5
endloop
endfacet
facet normal -1 0 0
outer loop
vertex 15.49998 9.49998 0
vertex 15.49998 9.49998 7.99998
vertex 15.49998 14.500020000000001 7.99998
endloop
endfacet
facet normal -1 0 0
outer loop
vertex 15.49998 9.49998 0
vertex 15.49998 14.500020000000001 7.99998
vertex 15.49998 14.500020000000001 0
endloop
endfacet
facet normal 1 0 0
outer loop
vertex 20.50002 9.49998 0
vertex 20.50002 14.500020000000001 0
vertex 20.50002 14.500020000000001 7.99998
endloop
endfacet
facet normal 1 0 0
outer loop
vertex 20.50002 9.49998 0
vertex 20.50002 14.500020000000001 7.99998
vertex 20.50002 9.49998 7.99998
endloop
endfacet
facet normal 0 -1 0
outer loop
vertex 15.49998 9.49998 0
vertex 20.50002 9.49998 0
vertex 20.50002 9.49998 7.99998
endloop
endfacet
facet normal 0 -1 0
outer loop
vertex 15.49998 9.49998 0
vertex 20.50002 9.49998 7.99998
vertex 15.49998 9.49998 7.99998
endloop
endfacet
facet normal 0 1 0
outer loop
vertex 15.49998 14.500020000000001 0
vertex 15.49998 14.500020000000001 7.99998
vertex 20.50002 14.500020000000001 7.99998
endloop
endfacet
facet normal 0 1 0
outer loop
vertex 15.49998 14.500020000000001 0
vertex 20.50002 14.500020000000001 7.99998
vertex 20.50002 14.500020000000001 0
endloop
endfacet
facet normal 0 0 -1
outer loop
vertex 15.49998 9.49998 0
vertex 15.49998 14.500020000000001 0
vertex 20.50002 14.500020000000001 0
endloop
endfacet
facet normal 0 0 -1
outer loop
vertex 15.49998 9.49998 0
vertex 20.50002 14.500020000000001 0
vertex 20.50002 9.49998 0
endloop
endfacet
facet normal 0 0 1
outer loop
vertex 15.49998 9.49998 7.99998
vertex 20.50002 9.49998 7.99998
vertex 20.50002 14.500020000000001 7.99998
endloop
endfacet
facet normal 0 0 1
outer loop
vertex 15.49998 9.49998 7.99998
vertex 20.50002 14.500020000000001 7.99998
vertex 15.49998 14.500020000000001 7.99998
endloop
endfacet
facet normal -1 0 0
outer loop
vertex 21.500013333333335 9.499996666666668 0
vertex 21.500013333333335 9.499996666666668 6.999976666666667
vertex 21.500013333333335 14.49998 6.999976666666667
endloop
endfacet
facet normal -1 0 0
outer loop
vertex 21.500013333333335 9.499996666666668 0
vertex 21.500013333333335 14.49998 6.999976666666667
vertex 21.500013333333335 14.49998 0
endloop
endfacet
facet normal 1 0 0
outer loop
vertex 26.499996666666668 9.499996666666668 0
vertex 26.499996666666668 14.49998 0
vertex 26.499996666666668 14.49998 6.999976666666667
endloop
endfacet
facet normal 1 0 0
outer loop
vertex 26.499996666666668 9.499996666666668 0
vertex 26.499996666666668 14.49998 6.999976666666667
vertex 26.499996666666668 9.499996666666668 6.999976666666667
endloop
endfacet
facet normal 0 -1 0
outer loop
vertex 21.500013333333335 9.499996666666668 0
vertex 26.499996666666668 9.499996666666668 0
vertex 26.499996666666668 9.499996666666668 6.999976666666667
endloop
endfacet
facet normal 0 -1 0
outer loop
vertex 21.500013333333335 9.499996666666668 0
vertex 26.499996666666668 9.499996666666668 6.999976666666667
vertex 21.500013333333335 9.499996666666668 6.999976666666667
endloop
endfacet
facet normal 0 1 0
outer loop
vertex 21.500013333333335 14.49998 0
vertex 21.500013333333335 14.49998 6.999976666666667
vertex 26.499996666666668 14.49998 6.999976666666667
endloop
endfacet
facet normal 0 1 0
outer loop
vertex 21.500013333333335 14.49998 0
vertex 26.499996666666668 14.49998 6.999976666666667
vertex 26.499996666666668 14.49998 0
endloop
endfacet
facet normal 0 0 -1
outer loop
vertex 21.500013333333335 9.499996666666668 0
vertex 21.500013333333335 14.49998 0
vertex 26.499996666666668 14.49998 0
endloop
endfacet
facet normal 0 0 -1
outer loop
vertex 21.500013333333335 9.499996666666668 0
vertex 26.499996666666668 14.49998 0
vertex 26.499996666666668 9.499996666666668 0
endloop
endfacet
facet normal 0 0 1
outer loop
vertex 21.500013333333335 9.499996666666668 6.999976666666667
vertex 26.499996666666668 9.499996666666668 6.999976666666667
vertex 26.499996666666668 14.49998 6.999976666666667
endloop
endfacet
facet normal 0 0 1
outer loop
vertex 21.500013333333335 9.499996666666668 6.999976666666667
vertex 26.499996666666668 14.49998 6.999976666666667
vertex 21.500013333333335 14.49998 6.999976666666667
endloop
endfacet
facet normal -1 0 0
outer loop
vertex -2.50002 15.50001 0
vertex -2.50002 15.50001 8.999983333333333
vertex -2.50002 20.499986666666665 8.999983333333333
endloop
endfacet
facet normal -1 0 0
outer loop
vertex -2.50002 15.50001 0
vertex -2.50002 20.499986666666665 8.999983333333333
vertex -2.50002 20.499986666666665 0
endloop
endfacet
facet normal 1 0 0
outer loop
vertex 2.50002 15.50001 0
vertex 2.50002 20.499986666666665 0
vertex 2.50002 20.499986666666665 8.999983333333333
endloop
endfacet
facet normal 1 0 0
outer loop
vertex 2.50002 15.50001 0
vertex 2.50002 20.499986666666665 8.999983333333333
vertex 2.50002 15.50001 8.999983333333333
endloop
endfacet
facet normal 0 -0.9999999999999999 0
outer loop
vertex -2.50002 15.50001 0
vertex 2.50002 15.50001 0
vertex 2.50002 15.50001 8.999983333333333
endloop
endfacet
facet normal 0 -0.9999999999999999 0
outer loop
vertex -2.50002 15.50001 0
vertex 2.50002 15.50001 8.999983333333333
vertex -2.50002 15.50001 8.999983333333333
endloop
endfacet
facet normal 0 0.9999999999999999 0
outer loop
vertex -2.50002 20.499986666666665 0
vertex -2.50002 20.499986666666665 8.999983333333333
vertex 2.50002 20.499986666666665 8.999983333333333
endloop
endfacet
facet normal 0 0.9999999999999999 0
outer loop
vertex -2.50002 20.499986666666665 0
vertex 2.50002 20.499986666666665 8.999983333333333
vertex 2.50002 20.499986666666665 0
endloop
endfacet
facet normal 0 0 -0.9999999999999999
outer loop
vertex -2.50002 15.50001 0
vertex -2.50002 20.499986666666665 0
vertex 2.50002 20.499986666666665 0
endloop
endfacet
facet normal 0 0 -0.9999999999999999
outer loop
vertex -2.50002 15.50001 0
vertex 2.50002 20.499986666666665 0
vertex 2.50002 15.50001 0
endloop
endfacet
facet normal 0 0 0.9999999999999999
outer loop
vertex -2.50002 15.50001 8.999983333333333
vertex 2.50002 15.50001 8.999983333333333
vertex 2.50002 20.499986666666665 8.999983333333333
endloop
endfacet
facet normal 0 0 0.9999999999999999
outer loop
vertex -2.50002 15.50001 8.999983333333333
vertex 2.50002 20.499986666666665 8.999983333333333
vertex -2.50002 20.499986666666665 8.999983333333333
endloop
endfacet
facet normal -1 0 0
outer loop
vertex 3.5000166666666668 15.499976666666667 0
vertex 3.5000166666666668 15.499976666666667 6.999976666666667
vertex 3.5000166666666668 20.500016666666667 6.999976666666667
endloop
endfacet
facet normal -1 0 0
outer loop
vertex 3.5000166666666668 15.499976666666667 0
vertex 3.5000166666666668 20.500016666666667 6.999976666666667
vertex 3.5000166666666668 20.500016666666667 0
endloop
endfacet
facet normal 1 0 0
outer loop
vertex 8.5 15.499976666666667 0
vertex 8.5 20.500016666666667 0
vertex 8.5 20.500016666666667 6.999976666666667
endloop
endfacet
facet normal 1 0 0
outer loop
vertex 8.5 15.499976666666667 0
vertex 8.5 20.500016666666667 6.999976666666667
vertex 8.5 15.499976666666667 6.999976666666667
endloop
endfacet
facet normal 0 -1 0
outer loop
vertex 3.5000166666666668 15.499976666666667 0
vertex 8.5 15.499976666666667 0
vertex 8.5 15.499976666666667 6.999976666666667
endloop
endfacet
facet normal 0 -1 0
outer loop
vertex 3.5000166666666668 15.499976666666667 0
vertex 8.5 15.499976666666667 6.999976666666667
vertex 3.5000166666666668 15.499976666666667 6.999976666666667
endloop
endfacet
facet normal 0 1 0
outer loop
vertex 3.5000166666666668 20.500016666666667 0
vertex 3.5000166666666668 20.500016666666667 6.999976666666667
vertex 8.5 20.500016666666667 6.999976666666667
endloop
endfacet
facet normal 0 1 0
outer loop
vertex 3.5000166666666668 20.500016666666667 0
vertex 8.5 20.500016666666667 6.999976666666667
vertex 8.5 20.500016666666667 0
endloop
endfacet
facet normal 0 0 -1
outer loop
vertex 3.5000166666666668 15.499976666666667 0
vertex 3.5000166666666668 20.500016666666667 0
vertex 8.5 20.500016666666667 0
endloop
endfacet
facet normal 0 0 -1
outer loop
vertex 3.5000166666666668 15.499976666666667 0
vertex 8.5 20.500016666666667 0
vertex 8.5 15.499976666666667 0
endloop
endfacet
facet normal 0 0 1
outer loop
vertex 3.5000166666666668 15.499976666666667 6.999976666666667
vertex 8.5 15.499976666666667 6.999976666666667
vertex 8.5 20.500016666666667 6.999976666666667
endloop
endfacet
facet normal 0 0 1
outer loop
vertex 3.5000166666666668 15.499976666666667 6.999976666666667
vertex 8.5 20.500016666666667 6.999976666666667
vertex 3.5000166666666668 20.500016666666667 6.999976666666667
endloop
endfacet
facet normal -1 0 0
outer loop
vertex 9.500000000000002 15.500000000000002 0
vertex 9.500000000000002 15.500000000000002 6.000000000000001
vertex 9.500000000000002 20.500000000000004 6.000000000000001
endloop
endfacet
facet normal -1 0 0
outer loop
vertex 9.500000000000002 15.500000000000002 0
vertex 9.500000000000002 20.500000000000004 6.000000000000001
vertex 9.500000000000002 20.500000000000004 0
endloop
endfacet
facet normal 1 0 0
outer loop
vertex 14.500000000000002 15.500000000000002 0
vertex 14.500000000000002 20.500000000000004 0
vertex 14.500000000000002 20.500000000000004 6.000000000000001
endloop
endfacet
facet normal 1 0 0
outer loop
vertex 14.500000000000002 15.500000000000002 0
vertex 14.500000000000002 20.500000000000004 6.000000000000001
vertex 14.500000000000002 15.500000000000002 6.000000000000001
endloop
endfacet
facet normal 0 -0.9999999999999999 0
outer loop
vertex 9.500000000000002 15.500000000000002 0
vertex 14.500000000000002 15.500000000000002 0
vertex 14.500000000000002 15.500000000000002 6.000000000000001
endloop
endfacet
facet normal 0 -0.9999999999999999 0
outer loop
vertex 9.500000000000002 15.500000000000002 0
vertex 14.500000000000002 15.500000000000002 6.000000000000001
vertex 9.500000000000002 15.500000000000002 6.000000000000001
endloop
endfacet
facet normal 0 0.9999999999999999 0
outer loop
vertex 9.500000000000002 20.500000000000004 0
vertex 9.500000000000002 20.500000000000004 6.000000000000001
vertex 14.500000000000002 20.500000000000004 6.000000000000001
endloop
endfacet
facet normal 0 0.9999999999999999 0
outer loop
vertex 9.500000000000002 20.500000000000004 0
vertex 14.500000000000002 20.500000000000004 6.000000000000001
vertex 14.500000000000002 20.500000000000004 0
endloop
endfacet
facet normal 0 0 -1
outer loop
vertex 9.500000000000002 15.500000000000002 0
vertex 9.500000000000002 20.500000000000004 0
vertex 14.500000000000002 20.500000000000004 0
endloop
endfacet
facet normal 0 0 -1
outer loop
vertex 9.500000000000002 15.500000000000002 0
vertex 14.500000000000002 20.500000000000004 0
vertex 14.500000000000002 15.500000000000002 0
endloop
endfacet
facet normal 0 0 1
outer loop
vertex 9.500000000000002 15.500000000000002 6.000000000000001
vertex 14.500000000000002 15.500000000000002 6.000000000000001
vertex 14.500000000000002 20.500000000000004 6.000000000000001
endloop
endfacet
facet normal 0 0 1
outer loop
vertex 9.500000000000002 15.500000000000002 6.000000000000001
vertex 14.500000000000002 20.500000000000004 6.000000000000001
vertex 9.500000000000002 20.500000000000004 6.000000000000001
endloop
endfacet
facet normal -1 0 0
outer loop
vertex 15.499976666666667 15.499976666666667 0
vertex 15.499976666666667 15.499976666666667 6.999976666666667
vertex 15.499976666666667 20.500016666666667 6.999976666666667
endloop
endfacet
facet normal -1 0 0
outer loop
vertex 15.499976666666667 15.499976666666667 0
vertex 15.499976666666667 20.500016666666667 6.999976666666667
vertex 15.499976666666667 20.500016666666667 0
endloop
endfacet
facet normal 1 0 0
outer loop
vertex 20.500016666666667 15.499976666666667 0
vertex 20.500016666666667 20.500016666666667 0
vertex 20.500016666666667 20.500016666666667 6.999976666666667
endloop
endfacet
facet normal 1 0 0
outer loop
vertex 20.500016666666667 15.499976666666667 0
vertex 20.500016666666667 20.500016666666667 6.999976666666667
vertex 20.500016666666667 15.499976666666667 6.999976666666667
endloop
endfacet
facet normal 0 -1 0
outer loop
vertex 15.499976666666667 15.499976666666667 0
vertex 20.500016666666667 15.499976666666667 0
vertex 20.500016666666667 15.499976666666667 6.999976666666667
endloop
endfacet
facet normal 0 -1 0
outer loop
vertex 15.499976666666667 15.499976666666667 0
vertex 20.500016666666667 15.499976666666667 6.999976666666667
vertex 15.499976666666667 15.499976666666667 6.999976666666667
endloop
endfacet
facet normal 0 1 0
outer loop
vertex 15.499976666666667 20.500016666666667 0
vertex 15.499976666666667 20.500016666666667 6.999976666666667
vertex 20.500016666666667 20.500016666666667 6.999976666666667
endloop
endfacet
facet normal 0 1 0
outer loop
vertex 15.499976666666667 20.500016666666667 0
vertex 20.500016666666667 20.500016666666667 6.999976666666667
vertex 20.500016666666667 20.500016666666667 0
endloop
endfacet
facet normal 0 0 -1
outer loop
vertex 15.499976666666667 15.499976666666667 0
vertex 15.499976666666667 20.500016666666667 0
vertex 20.500016666666667 20.500016666666667 0
endloop
endfacet
facet normal 0 0 -1
outer loop
vertex 15.499976666666667 15.499976666666667 0
vertex 20.500016666666667 20.500016666666667 0
vertex 20.500016666666667 15.499976666666667 0
endloop
endfacet
facet normal 0 0 1
outer loop
vertex 15.499976666666667 15.499976666666667 6.999976666666667
vertex 20.500016666666667 15.499976666666667 6.999976666666667
vertex 20.500016666666667 20.500016666666667 6.999976666666667
endloop
endfacet
facet normal 0 0 1
outer loop
vertex 15.499976666666667 15.499976666666667 6.999976666666667
vertex 20.500016666666667 20.500016666666667 6.999976666666667
vertex 15.499976666666667 20.500016666666667 6.999976666666667
endloop
endfacet
facet normal -1 0 0
outer loop
vertex 21.49998 15.49998 0
vertex 21.49998 15.49998 7.99998
vertex 21.49998 20.50002 7.99998
endloop
endfacet
facet normal -1 0 0
outer loop
vertex 21.49998 15.49998 0
vertex 21.49998 20.50002 7.99998
vertex 21.49998 20.50002 0
endloop
endfacet
facet normal 1 0 0
outer loop
vertex 26.50002 15.49998 0
vertex 26.50002 20.50002 0
vertex 26.50002 20.50002 7.99998
endloop
endfacet
facet normal 1 0 0
outer loop
vertex 26.50002 15.49998 0
vertex 26.50002 20.50002 7.99998
vertex 26.50002 15.49998 7.99998
endloop
endfacet
facet normal 0 -1 0
outer loop
vertex 21.49998 15.49998 0
vertex 26.50002 15.49998 0
vertex 26.50002 15.49998 7.99998
endloop
endfacet
facet normal 0 -1 0
outer loop
vertex 21.49998 15.49998 0
vertex 26.50002 15.49998 7.99998
vertex 21.49998 15.49998 7.99998
endloop
endfacet
facet normal 0 1 0
outer loop
vertex 21.49998 20.50002 0
vertex 21.49998 20.50002 7.99998
vertex 26.50002 20.50002 7.99998
endloop
endfacet
facet normal 0 1 0
outer loop
vertex 21.49998 20.50002 0
vertex 26.50002 20.50002 7.99998
vertex 26.50002 20.50002 0
endloop
endfacet
facet normal 0 0 -1
outer loop
vertex 21.49998 15.49998 0
vertex 21.49998 20.50002 0
vertex 26.50002 20.50002 0
endloop
endfacet
facet normal 0 0 -1
outer loop
vertex 21.49998 15.49998 0
vertex 26.50002 20.50002 0
vertex 26.50002 15.49998 0
endloop
endfacet
facet normal 0 0 1
outer loop
vertex 21.49998 15.49998 7.99998
vertex 26.50002 15.49998 7.99998
vertex 26.50002 20.50002 7.99998
endloop
endfacet
facet normal 0 0 1
outer loop
vertex 21.49998 15.49998 7.99998
vertex 26.50002 20.50002 7.99998
vertex 21.49998 20.50002 7.99998
endloop
endfacet
facet normal -1 0 0
outer loop
vertex -2.50002 21.500013333333335 0
vertex -2.50002 21.500013333333335 6.999976666666667
vertex -2.50002 26.499996666666668 6.999976666666667
endloop
endfacet
facet normal -1 0 0
outer loop
vertex -2.50002 21.500013333333335 0
vertex -2.50002 26.499996666666668 6.999976666666667
vertex -2.50002 26.499996666666668 0
endloop
endfacet
facet normal 1 0 0
outer loop
vertex 2.50002 21.500013333333335 0
vertex 2.50002 26.499996666666668 0
vertex 2.50002 26.499996666666668 6.999976666666667
endloop
endfacet
facet normal 1 0 0
outer loop
vertex 2.50002 21.500013333333335 0
vertex 2.50002 26.499996666666668 6.999976666666667
vertex 2.50002 21.500013333333335 6.999976666666667
endloop
endfacet
facet normal 0 -1 0
outer loop
vertex -2.50002 21.500013333333335 0
vertex 2.50002 21.500013333333335 0
vertex 2.50002 21.500013333333335 6.999976666666667
endloop
endfacet
facet normal 0 -1 0
outer loop
vertex -2.50002 21.500013333333335 0
vertex 2.50002 21.500013333333335 6.999976666666667
vertex -2.50002 21.500013333333335 6.999976666666667
endloop
endfacet
facet normal 0 1 0
outer loop
vertex -2.50002 26.499996666666668 0
vertex -2.50002 26.499996666666668 6.999976666666667
vertex 2.50002 26.499996666666668 6.999976666666667
endloop
endfacet
facet normal 0 1 0
outer loop
vertex -2.50002 26.499996666666668 0
vertex 2.50002 26.499996666666668 6.999976666666667
vertex 2.50002 26.499996666666668 0
endloop
endfacet
facet normal 0 0 -1
outer loop
vertex -2.50002 21.500013333333335 0
vertex -2.50002 26.499996666666668 0
vertex 2.50002 26.499996666666668 0
endloop
endfacet
facet normal 0 0 -1
outer loop
vertex -2.50002 21.500013333333335 0
vertex 2.50002 26.499996666666668 0
vertex 2.50002 21.500013333333335 0
endloop
endfacet
facet normal 0 0 1
outer loop
vertex -2.50002 21.500013333333335 6.999976666666667
vertex 2.50002 21.500013333333335 6.999976666666667
vertex 2.50002 26.499996666666668 6.999976666666667
endloop
endfacet
facet normal 0 0 1
outer loop
vertex -2.50002 21.500013333333335 6.999976666666667
vertex 2.50002 26.499996666666668 6.999976666666667
vertex -2.50002 26.499996666666668 6.999976666666667
endloop
endfacet
facet normal -1 0 0
outer loop
vertex 3.5000166666666668 21.500013333333335 0
vertex 3.5000166666666668 21.500013333333335 6.999976666666667
vertex 3.5000166666666668 26.499996666666668 6.999976666666667
endloop
endfacet
facet normal -1 0 0
outer loop
vertex 3.5000166666666668 21.500013333333335 0
vertex 3.5000166666666668 26.499996666666668 6.999976666666667
vertex 3.5000166666666668 26.499996666666668 0
endloop
endfacet
facet normal 1 0 0
outer loop
vertex 8.5 21.500013333333335 0
vertex 8.5 26.499996666666668 0
vertex 8.5 26.499996666666668 6.999976666666667
endloop
endfacet
facet normal 1 0 0
outer loop
vertex 8.5 21.500013333333335 0
vertex 8.5 26.499996666666668 6.999976666666667
vertex 8.5 21.500013333333335 6.999976666666667
endloop
endfacet
facet normal 0 -1 0
outer loop
vertex 3.5000166666666668 21.500013333333335 0
vertex 8.5 21.500013333333335 0
vertex 8.5 21.500013333333335 6.999976666666667
endloop
endfacet
facet normal 0 -1 0
outer loop
vertex 3.5000166666666668 21.500013333333335 0
vertex 8.5 21.500013333333335 6.999976666666667
vertex 3.5000166666666668 21.500013333333335 6.999976666666667
endloop
endfacet
facet normal 0 1 0
outer loop
vertex 3.5000166666666668 26.499996666666668 0
vertex 3.5000166666666668 26.499996666666668 6.999976666666667
vertex 8.5 26.499996666666668 6.999976666666667
endloop
endfacet
facet normal 0 1 0
outer loop
vertex 3.5000166666666668 26.499996666666668 0
vertex 8.5 26.499996666666668 6.999976666666667
vertex 8.5 26.499996666666668 0
endloop
endfacet
facet normal 0 0 -1
outer loop
vertex 3.5000166666666668 21.500013333333335 0
vertex 3.5000166666666668 26.499996666666668 0
vertex 8.5 26.499996666666668 0
endloop
endfacet
facet normal 0 0 -1
outer loop
vertex 3.5000166666666668 21.500013333333335 0
vertex 8.5 26.499996666666668 0
vertex 8.5 21.500013333333335 0
endloop
endfacet
facet normal 0 0 1
outer loop
vertex 3.5000166666666668 21.500013333333335 6.999976666666667
vertex 8.5 21.500013333333335 6.999976666666667
vertex 8.5 26.499996666666668 6.999976666666667
endloop
endfacet
facet normal 0 0 1
outer loop
vertex 3.5000166666666668 21.500013333333335 6.999976666666667
vertex 8.5 26.499996666666668 6.999976666666667
vertex 3.5000166666666668 26.499996666666668 6.999976666666667
endloop
endfacet
facet normal -1 0 0
outer loop
vertex 9.5 21.5 0
vertex 9.5 21.5 5
vertex 9.5 26.5 5
endloop
endfacet
facet normal -1 0 0
outer loop
vertex 9.5 21.5 0
vertex 9.5 26.5 5
vertex 9.5 26.5 0
endloop
endfacet
facet normal 1 0 0
outer loop
vertex 14.5 21.5 0
vertex 14.5 26.5 0
vertex 14.5 26.5 5
endloop
endfacet
facet normal 1 0 0
outer loop
vertex 14.5 21.5 0
vertex 14.5 26.5 5
vertex 14.5 21.5 5
endloop
endfacet
facet normal 0 -1 0
outer loop
vertex 9.5 21.5 0
vertex 14.5 21.5 0
vertex 14.5 21.5 5
endloop
endfacet
facet normal 0 -1 0
outer loop
vertex 9.5 21.5 0
vertex 14.5 21.5 5
vertex 9.5 21.5 5
endloop
endfacet
facet normal 0 1 0
outer loop
vertex 9.5 26.5 0
vertex 9.5 26.5 5
vertex 14.5 26.5 5
endloop
endfacet
facet normal 0 1 0
outer loop
vertex 9.5 26.5 0
vertex 14.5 26.5 5
vertex 14.5 26.5 0
endloop
endfacet
facet normal 0 0 -1
outer loop
vertex 9.5 21.5 0
vertex 9.5 26.5 0
vertex 14.5 26.5 0
endloop
endfacet
facet normal 0 0 -1
outer loop
vertex 9.5 21.5 0
vertex 14.5 26.5 0
vertex 14.5 21.5 0
endloop
endfacet
facet normal 0 0 1
outer loop
vertex 9.5 21.5 5
vertex 14.5 21.5 5
vertex 14.5 26.5 5
endloop
endfacet
facet normal 0 0 1
outer loop
vertex 9.5 21.5 5
vertex 14.5 26.5 5
vertex 9.5 26.5 5
endloop
endfacet
facet normal -1 0 0
outer loop
vertex 15.499976666666667 21.500013333333335 0
vertex 15.499976666666667 21.500013333333335 6.999976666666667
vertex 15.499976666666667 26.499996666666668 6.999976666666667
endloop
endfacet
facet normal -1 0 0
outer loop
vertex 15.499976666666667 21.500013333333335 0
vertex 15.499976666666667 26.499996666666668 6.999976666666667
vertex 15.499976666666667 26.499996666666668 0
endloop
endfacet
facet normal 1 0 0
outer loop
vertex 20.500016666666667 21.500013333333335 0
vertex 20.500016666666667 26.499996666666668 0
vertex 20.500016666666667 26.499996666666668 6.999976666666667
endloop
endfacet
facet normal 1 0 0
outer loop
vertex 20.500016666666667 21.500013333333335 0
vertex 20.500016666666667 26.499996666666668 6.999976666666667
vertex 20.500016666666667 21.500013333333335 6.999976666666667
endloop
endfacet
facet normal 0 -1 0
outer loop
vertex 15.499976666666667 21.500013333333335 0
vertex 20.500016666666667 21.500013333333335 0
vertex 20.500016666666667 21.500013333333335 6.999976666666667
endloop
endfacet
facet normal 0 -1 0
outer loop
vertex 15.499976666666667 21.500013333333335 0
vertex 20.500016666666667 21.500013333333335 6.999976666666667
vertex 15.499976666666667 21.500013333333335 6.999976666666667
endloop
endfacet
facet normal 0 1 0
outer loop
vertex 15.499976666666667 26.499996666666668 0
vertex 15.499976666666667 26.499996666666668 6.999976666666667
vertex 20.500016666666667 26.499996666666668 6.999976666666667
endloop
endfacet
facet normal 0 1 0
outer loop
vertex 15.499976666666667 26.499996666666668 0
vertex 20.500016666666667 26.499996666666668 6.999976666666667
vertex 20.500016666666667 26.499996666666668 0
endloop
endfacet
facet normal 0 0 -1
outer loop
vertex 15.499976666666667 21.500013333333335 0
vertex 15.499976666666667 26.499996666666668 0
vertex 20.500016666666667 26.499996666666668 0
endloop
endfacet
facet normal 0 0 -1
outer loop
vertex 15.499976666666667 21.500013333333335 0
vertex 20.500016666666667 26.499996666666668 0
vertex 20.500016666666667 21.500013333333335 0
endloop
endfacet
facet normal 0 0 1
outer loop
vertex 15.499976666666667 21.500013333333335 6.999976666666667
vertex 20.500016666666667 21.500013333333335 6.999976666666667
vertex 20.500016666666667 26.499996666666668 6.999976666666667
endloop
endfacet
facet normal 0 0 1
outer loop
vertex 15.499976666666667 21.500013333333335 6.999976666666667
vertex 20.500016666666667 26.499996666666668 6.999976666666667
vertex 15.499976666666667 26.499996666666668 6.999976666666667
endloop
endfacet
facet normal -1 0 0
outer loop
vertex 21.500013333333335 21.500013333333335 0
vertex 21.500013333333335 21.500013333333335 6.999976666666667
vertex 21.500013333333335 26.499996666666668 6.999976666666667
endloop
endfacet
facet normal -1 0 0
outer loop
vertex 21.500013333333335 21.500013333333335 0
vertex 21.500013333333335 26.499996666666668 6.999976666666667
vertex 21.500013333333335 26.499996666666668 0
endloop
endfacet
facet normal 1 0 0
outer loop
vertex 26.499996666666668 21.500013333333335 0
vertex 26.499996666666668 26.499996666666668 0
vertex 26.499996666666668 26.499996666666668 6.999976666666667
endloop
endfacet
facet normal 1 0 0
outer loop
vertex 26.499996666666668 21.500013333333335 0
vertex 26.499996666666668 26.499996666666668 6.999976666666667
vertex 26.499996666666668 21.500013333333335 6.999976666666667
endloop
endfacet
facet normal 0 -1 0
outer loop
vertex 21.500013333333335 21.500013333333335 0
vertex 26.499996666666668 21.500013333333335 0
vertex 26.499996666666668 21.500013333333335 6.999976666666667
endloop
endfacet
facet normal 0 -1 0
outer loop
vertex 21.500013333333335 21.500013333333335 0
vertex 26.499996666666668 21.500013333333335 6.999976666666667
vertex 21.500013333333335 21.500013333333335 6.999976666666667
endloop
endfacet
facet normal 0 1 0
outer loop
vertex 21.500013333333335 26.499996666666668 0
vertex 21.500013333333335 26.499996666666668 6.999976666666667
vertex 26.499996666666668 26.499996666666668 6.999976666666667
endloop
endfacet
facet normal 0 1 0
outer loop
vertex 21.500013333333335 26.499996666666668 0
vertex 26.499996666666668 26.499996666666668 6.999976666666667
vertex 26.499996666666668 26.499996666666668 0
endloop
endfacet
facet normal 0 0 -1
outer loop
vertex 21.500013333333335 21.500013333333335 0
vertex 21.500013333333335 26.499996666666668 0
vertex 26.499996666666668 26.499996666666668 0
endloop
endfacet
facet normal 0 0 -1
outer loop
vertex 21.500013333333335 21.500013333333335 0
vertex 26.499996666666668 26.499996666666668 0
vertex 26.499996666666668 21.500013333333335 0
endloop
endfacet
facet normal 0 0 1
outer loop
vertex 21.500013333333335 21.500013333333335 6.999976666666667
vertex 26.499996666666668 21.500013333333335 6.999976666666667
vertex 26.499996666666668 26.499996666666668 6.999976666666667
endloop
endfacet
facet normal 0 0 1
outer loop
vertex 21.500013333333335 21.500013333333335 6.999976666666667
vertex 26.499996666666668 26.499996666666668 6.999976666666667
vertex 21.500013333333335 26.499996666666668 6.999976666666667
endloop
endfacet
facet normal -1 0 0
outer loop
vertex -2.9999800000000003 -2.9999800000000003 -0.49999666666666676
vertex -2.9999800000000003 -2.9999800000000003 0.49999666666666676
vertex -2.9999800000000003 27.00002333333334 0.49999666666666676
endloop
endfacet
facet normal -1 0 0
outer loop
vertex -2.9999800000000003 -2.9999800000000003 -0.49999666666666676
vertex -2.9999800000000003 27.00002333333334 0.49999666666666676
vertex -2.9999800000000003 27.00002333333334 -0.49999666666666676
endloop
endfacet
facet normal 1 0 0
outer loop
vertex 27.00002333333334 -2.9999800000000003 -0.49999666666666676
vertex 27.00002333333334 27.00002333333334 -0.49999666666666676
vertex 27.00002333333334 27.00002333333334 0.49999666666666676
endloop
endfacet
facet normal 1 0 0
outer loop
vertex 27.00002333333334 -2.9999800000000003 -0.49999666666666676
vertex 27.00002333333334 27.00002333333334 0.49999666666666676
vertex 27.00002333333334 -2.9999800000000003 0.49999666666666676
endloop
endfacet
facet normal 0 -1 0
outer loop
vertex -2.9999800000000003 -2.9999800000000003 -0.49999666666666676
vertex 27.00002333333334 -2.9999800000000003 -0.49999666666666676
vertex 27.00002333333334 -2.9999800000000003 0.49999666666666676
endloop
endfacet
facet normal 0 -1 0
outer loop
vertex -2.9999800000000003 -2.9999800000000003 -0.49999666666666676
vertex 27.00002333333334 -2.9999800000000003 0.49999666666666676
vertex -2.9999800000000003 -2.9999800000000003 0.49999666666666676
endloop
endfacet
facet normal 0 1 0
outer loop
vertex -2.9999800000000003 27.00002333333334 -0.49999666666666676
vertex -2.9999800000000003 27.00002333333334 0.49999666666666676
vertex 27.00002333333334 27.00002333333334 0.49999666666666676
endloop
endfacet
facet normal 0 1 0
outer loop
vertex -2.9999800000000003 27.00002333333334 -0.49999666666666676
vertex 27.00002333333334 27.00002333333334 0.49999666666666676
vertex 27.00002333333334 27.00002333333334 -0.49999666666666676
endloop
endfacet
facet normal 0 0 -1
outer loop
vertex -2.9999800000000003 -2.9999800000000003 -0.49999666666666676
vertex -2.9999800000000003 27.00002333333334 -0.49999666666666676
vertex 27.00002333333334 27.00002333333334 -0.49999666666666676
endloop
endfacet
facet normal 0 0 -1
outer loop
vertex -2.9999800000000003 -2.9999800000000003 -0.49999666666666676
vertex 27.00002333333334 27.00002333333334 -0.49999666666666676
vertex 27.00002333333334 -2.9999800000000003 -0.49999666666666676
endloop
endfacet
facet normal 0 0 1
outer loop
vertex -2.9999800000000003 -2.9999800000000003 0.49999666666666676
vertex 27.00002333333334 -2.9999800000000003 0.49999666666666676
vertex 27.00002333333334 27.00002333333334 0.49999666666666676
endloop
endfacet
facet normal 0 0 1
outer loop
vertex -2.9999800000000003 -2.9999800000000003 0.49999666666666676
vertex 27.00002333333334 27.00002333333334 0.49999666666666676
vertex -2.9999800000000003 27.00002333333334 0.49999666666666676
endloop
endfacet
endsolid JSCAD
