<?xml version="1.0" encoding="utf-8"?>
<svg version="1.1" xmlns="http://www.w3.org/2000/svg" xmlns:xlink="http://www.w3.org/1999/xlink" x="0px" y="0px"
	 viewBox="0 0 400 400" style="enable-background:new 0 0 400 400;" xml:space="preserve">
<style type="text/css">
	.st0{fill:none;stroke:#000000;stroke-linecap:round;stroke-miterlimit:10;}
	.st1{fill:#FFFFFF;stroke:#FF0000;stroke-width:2;stroke-linecap:round;stroke-miterlimit:10;}
</style>
<path class="st0" d="M20,0L0,20"/>
<path class="st0" d="M20,20L0,40"/>
<path class="st0" d="M20,40L0,60"/>
<path class="st0" d="M20,60L0,80"/>
<path class="st0" d="M0,80l20,20"/>
<path class="st0" d="M0,100l20,20"/>
<path class="st0" d="M20,120L0,140"/>
<path class="st0" d="M20,140L0,160"/>
<path class="st0" d="M20,160L0,180"/>
<path class="st0" d="M20,180L0,200"/>
<path class="st0" d="M0,200l20,20"/>
<path class="st0" d="M20,220L0,240"/>
<path class="st0" d="M20,240L0,260"/>
<path class="st0" d="M0,260l20,20"/>
<path class="st0" d="M0,280l20,20"/>
<path class="st0" d="M20,300L0,320"/>
<path class="st0" d="M20,320L0,340"/>
<path class="st0" d="M20,340L0,360"/>
<path class="st0" d="M20,360L0,380"/>
<path class="st0" d="M20,380L0,400"/>
<path class="st0" d="M20,0l20,20"/>
<path class="st0" d="M20,20l20,20"/>
<path class="st0" d="M20,40l20,20"/>
<path class="st0" d="M40,60L20,80"/>
<path class="st0" d="M40,80l-20,20"/>
<path class="st0" d="M20,100l20,20"/>
<path class="st0" d="M20,120l20,20"/>
<path class="st0" d="M40,140l-20,20"/>
<path class="st0" d="M40,160l-20,20"/>
<path class="st0" d="M40,180l-20,20"/>
<path class="st0" d="M40,200l-20,20"/>
<path class="st0" d="M40,220l-20,20"/>
<path class="st0" d="M20,240l20,20"/>
<path class="st0" d="M40,260l-20,20"/>
<path class="st0" d="M20,280l20,20"/>
<path class="st0" d="M40,300l-20,20"/>
<path class="st0" d="M40,320l-20,20"/>
<path class="st0" d="M40,340l-20,20"/>
<path class="st0" d="M20,360l20,20"/>
<path class="st0" d="M40,380l-20,20"/>
<path class="st0" d="M60,0L40,20"/>
<path class="st0" d="M40,20l20,20"/>
<path class="st0" d="M60,40L40,60"/>
<path class="st0" d="M40,60l20,20"/>
<path class="st0" d="M40,80l20,20"/>
<path class="st0" d="M40,100l20,20"/>
<path class="st0" d="M60,120l-20,20"/>
<path class="st0" d="M60,140l-20,20"/>
<path class="st0" d="M40,160l20,20"/>
<path class="st0" d="M60,180l-20,20"/>
<path class="st0" d="M40,200l20,20"/>
<path class="st0" d="M40,220l20,20"/>
<path class="st0" d="M40,240l20,20"/>
<path class="st0" d="M40,260l20,20"/>
<path class="st0" d="M60,280l-20,20"/>
<path class="st0" d="M40,300l20,20"/>
<path class="st0" d="M40,320l20,20"/>
<path class="st0" d="M40,340l20,20"/>
<path class="st0" d="M60,360l-20,20"/>
<path class="st0" d="M40,380l20,20"/>
<path class="st0" d="M60,0l20,20"/>
<path class="st0" d="M60,20l20,20"/>
<path class="st0" d="M80,40L60,60"/>
<path class="st0" d="M80,60L60,80"/>
<path class="st0" d="M80,80l-20,20"/>
<path class="st0" d="M60,100l20,20"/>
<path class="st0" d="M80,120l-20,20"/>
<path class="st0" d="M60,140l20,20"/>
<path class="st0" d="M80,160l-20,20"/>
<path class="st0" d="M60,180l20,20"/>
<path class="st0" d="M80,200l-20,20"/>
<path class="st0" d="M60,220l20,20"/>
<path class="st0" d="M80,240l-20,20"/>
<path class="st0" d="M60,300l20,20"/>
<path class="st0" d="M60,320l20,20"/>
<path class="st0" d="M80,340l-20,20"/>
<path class="st0" d="M60,360l20,20"/>
<path class="st0" d="M60,380l20,20"/>
<path class="st0" d="M100,0L80,20"/>
<path class="st0" d="M100,20L80,40"/>
<path class="st0" d="M80,40l20,20"/>
<path class="st0" d="M80,60l20,20"/>
<path class="st0" d="M80,80l20,20"/>
<path class="st0" d="M80,140l20,20"/>
<path class="st0" d="M100,160l-20,20"/>
<path class="st0" d="M100,180l-20,20"/>
<path class="st0" d="M80,200l20,20"/>
<path class="st0" d="M100,220l-20,20"/>
<path class="st0" d="M80,240l20,20"/>
<path class="st0" d="M100,300l-20,20"/>
<path class="st0" d="M80,320l20,20"/>
<path class="st0" d="M80,340l20,20"/>
<path class="st0" d="M80,360l20,20"/>
<path class="st0" d="M100,380l-20,20"/>
<path class="st0" d="M120,0l-20,20"/>
<path class="st0" d="M100,20l20,20"/>
<path class="st0" d="M120,40l-20,20"/>
<path class="st0" d="M100,60l20,20"/>
<path class="st0" d="M120,80l-20,20"/>
<path class="st0" d="M120,140l-20,20"/>
<path class="st0" d="M120,160l-20,20"/>
<path class="st0" d="M100,180l20,20"/>
<path class="st0" d="M100,200l20,20"/>
<path class="st0" d="M120,220l-20,20"/>
<path class="st0" d="M100,240l20,20"/>
<path class="st0" d="M100,260l20,20"/>
<path class="st0" d="M120,280l-20,20"/>
<path class="st0" d="M100,300l20,20"/>
<path class="st0" d="M100,320l20,20"/>
<path class="st0" d="M100,340l20,20"/>
<path class="st0" d="M100,360l20,20"/>
<path class="st0" d="M100,380l20,20"/>
<path class="st0" d="M140,0l-20,20"/>
<path class="st0" d="M120,20l20,20"/>
<path class="st0" d="M120,40l20,20"/>
<path class="st0" d="M120,60l20,20"/>
<path class="st0" d="M140,80l-20,20"/>
<path class="st0" d="M140,100l-20,20"/>
<path class="st0" d="M120,120l20,20"/>
<path class="st0" d="M120,140l20,20"/>
<path class="st0" d="M120,160l20,20"/>
<path class="st0" d="M120,180l20,20"/>
<path class="st0" d="M120,240l20,20"/>
<path class="st0" d="M140,260l-20,20"/>
<path class="st0" d="M120,280l20,20"/>
<path class="st0" d="M140,300l-20,20"/>
<path class="st0" d="M140,320l-20,20"/>
<path class="st0" d="M120,340l20,20"/>
<path class="st0" d="M120,360l20,20"/>
<path class="st0" d="M140,380l-20,20"/>
<path class="st0" d="M160,0l-20,20"/>
<path class="st0" d="M140,20l20,20"/>
<path class="st0" d="M140,40l20,20"/>
<path class="st0" d="M160,60l-20,20"/>
<path class="st0" d="M140,80l20,20"/>
<path class="st0" d="M140,100l20,20"/>
<path class="st0" d="M160,120l-20,20"/>
<path class="st0" d="M160,140l-20,20"/>
<path class="st0" d="M160,160l-20,20"/>
<path class="st0" d="M140,180l20,20"/>
<path class="st0" d="M160,240l-20,20"/>
<path class="st0" d="M160,260l-20,20"/>
<path class="st0" d="M160,280l-20,20"/>
<path class="st0" d="M140,300l20,20"/>
<path class="st0" d="M140,320l20,20"/>
<path class="st0" d="M140,340l20,20"/>
<path class="st0" d="M140,360l20,20"/>
<path class="st0" d="M160,380l-20,20"/>
<path class="st0" d="M160,0l20,20"/>
<path class="st0" d="M160,20l20,20"/>
<path class="st0" d="M160,80l20,20"/>
<path class="st0" d="M180,100l-20,20"/>
<path class="st0" d="M160,120l20,20"/>
<path class="st0" d="M180,140l-20,20"/>
<path class="st0" d="M160,160l20,20"/>
<path class="st0" d="M160,180l20,20"/>
<path class="st0" d="M160,200l20,20"/>
<path class="st0" d="M180,220l-20,20"/>
<path class="st0" d="M160,240l20,20"/>
<path class="st0" d="M160,260l20,20"/>
<path class="st0" d="M160,280l20,20"/>
<path class="st0" d="M180,300l-20,20"/>
<path class="st0" d="M160,320l20,20"/>
<path class="st0" d="M160,340l20,20"/>
<path class="st0" d="M160,360l20,20"/>
<path class="st0" d="M180,380l-20,20"/>
<path class="st0" d="M200,0l-20,20"/>
<path class="st0" d="M200,20l-20,20"/>
<path class="st0" d="M200,80l-20,20"/>
<path class="st0" d="M180,100l20,20"/>
<path class="st0" d="M180,120l20,20"/>
<path class="st0" d="M200,140l-20,20"/>
<path class="st0" d="M180,160l20,20"/>
<path class="st0" d="M200,180l-20,20"/>
<path class="st0" d="M200,200l-20,20"/>
<path class="st0" d="M200,220l-20,20"/>
<path class="st0" d="M200,240l-20,20"/>
<path class="st0" d="M200,260l-20,20"/>
<path class="st0" d="M200,280l-20,20"/>
<path class="st0" d="M180,300l20,20"/>
<path class="st0" d="M180,320l20,20"/>
<path class="st0" d="M180,340l20,20"/>
<path class="st0" d="M200,360l-20,20"/>
<path class="st0" d="M180,380l20,20"/>
<path class="st0" d="M220,0l-20,20"/>
<path class="st0" d="M200,20l20,20"/>
<path class="st0" d="M200,40l20,20"/>
<path class="st0" d="M220,60l-20,20"/>
<path class="st0" d="M200,80l20,20"/>
<path class="st0" d="M200,100l20,20"/>
<path class="st0" d="M220,120l-20,20"/>
<path class="st0" d="M220,140l-20,20"/>
<path class="st0" d="M200,160l20,20"/>
<path class="st0" d="M200,180l20,20"/>
<path class="st0" d="M200,200l20,20"/>
<path class="st0" d="M220,220l-20,20"/>
<path class="st0" d="M200,240l20,20"/>
<path class="st0" d="M220,260l-20,20"/>
<path class="st0" d="M200,280l20,20"/>
<path class="st0" d="M220,300l-20,20"/>
<path class="st0" d="M200,320l20,20"/>
<path class="st0" d="M200,340l20,20"/>
<path class="st0" d="M220,360l-20,20"/>
<path class="st0" d="M220,380l-20,20"/>
<path class="st0" d="M220,0l20,20"/>
<path class="st0" d="M220,20l20,20"/>
<path class="st0" d="M240,40l-20,20"/>
<path class="st0" d="M220,60l20,20"/>
<path class="st0" d="M240,80l-20,20"/>
<path class="st0" d="M220,100l20,20"/>
<path class="st0" d="M240,120l-20,20"/>
<path class="st0" d="M240,140l-20,20"/>
<path class="st0" d="M240,160l-20,20"/>
<path class="st0" d="M220,180l20,20"/>
<path class="st0" d="M240,200l-20,20"/>
<path class="st0" d="M220,220l20,20"/>
<path class="st0" d="M220,240l20,20"/>
<path class="st0" d="M240,260l-20,20"/>
<path class="st0" d="M240,280l-20,20"/>
<path class="st0" d="M220,300l20,20"/>
<path class="st0" d="M240,320l-20,20"/>
<path class="st0" d="M220,340l20,20"/>
<path class="st0" d="M240,360l-20,20"/>
<path class="st0" d="M220,380l20,20"/>
<path class="st0" d="M260,0l-20,20"/>
<path class="st0" d="M260,20l-20,20"/>
<path class="st0" d="M260,40l-20,20"/>
<path class="st0" d="M240,60l20,20"/>
<path class="st0" d="M240,80l20,20"/>
<path class="st0" d="M260,100l-20,20"/>
<path class="st0" d="M240,120l20,20"/>
<path class="st0" d="M240,140l20,20"/>
<path class="st0" d="M260,160l-20,20"/>
<path class="st0" d="M240,180l20,20"/>
<path class="st0" d="M240,200l20,20"/>
<path class="st0" d="M260,220l-20,20"/>
<path class="st0" d="M240,240l20,20"/>
<path class="st0" d="M240,260l20,20"/>
<path class="st0" d="M240,280l20,20"/>
<path class="st0" d="M260,300l-20,20"/>
<path class="st0" d="M240,320l20,20"/>
<path class="st0" d="M260,340l-20,20"/>
<path class="st0" d="M240,360l20,20"/>
<path class="st0" d="M260,380l-20,20"/>
<path class="st0" d="M280,0l-20,20"/>
<path class="st0" d="M280,20l-20,20"/>
<path class="st0" d="M280,40l-20,20"/>
<path class="st0" d="M260,60l20,20"/>
<path class="st0" d="M260,80l20,20"/>
<path class="st0" d="M280,100l-20,20"/>
<path class="st0" d="M280,120l-20,20"/>
<path class="st0" d="M260,140l20,20"/>
<path class="st0" d="M280,160l-20,20"/>
<path class="st0" d="M280,180l-20,20"/>
<path class="st0" d="M280,200l-20,20"/>
<path class="st0" d="M280,220l-20,20"/>
<path class="st0" d="M260,240l20,20"/>
<path class="st0" d="M260,260l20,20"/>
<path class="st0" d="M260,280l20,20"/>
<path class="st0" d="M260,300l20,20"/>
<path class="st0" d="M260,320l20,20"/>
<path class="st0" d="M280,340l-20,20"/>
<path class="st0" d="M280,360l-20,20"/>
<path class="st0" d="M280,380l-20,20"/>
<path class="st0" d="M280,0l20,20"/>
<path class="st0" d="M300,20l-20,20"/>
<path class="st0" d="M300,40l-20,20"/>
<path class="st0" d="M300,60l-20,20"/>
<path class="st0" d="M300,80l-20,20"/>
<path class="st0" d="M280,100l20,20"/>
<path class="st0" d="M280,120l20,20"/>
<path class="st0" d="M280,140l20,20"/>
<path class="st0" d="M280,160l20,20"/>
<path class="st0" d="M280,180l20,20"/>
<path class="st0" d="M280,200l20,20"/>
<path class="st0" d="M300,220l-20,20"/>
<path class="st0" d="M280,240l20,20"/>
<path class="st0" d="M280,260l20,20"/>
<path class="st0" d="M300,320l-20,20"/>
<path class="st0" d="M300,340l-20,20"/>
<path class="st0" d="M300,360l-20,20"/>
<path class="st0" d="M300,380l-20,20"/>
<path class="st0" d="M300,0l20,20"/>
<path class="st0" d="M300,20l20,20"/>
<path class="st0" d="M300,40l20,20"/>
<path class="st0" d="M300,60l20,20"/>
<path class="st0" d="M320,80l-20,20"/>
<path class="st0" d="M320,100l-20,20"/>
<path class="st0" d="M300,120l20,20"/>
<path class="st0" d="M320,140l-20,20"/>
<path class="st0" d="M300,160l20,20"/>
<path class="st0" d="M300,180l20,20"/>
<path class="st0" d="M300,200l20,20"/>
<path class="st0" d="M320,220l-20,20"/>
<path class="st0" d="M320,240l-20,20"/>
<path class="st0" d="M300,260l20,20"/>
<path class="st0" d="M320,320l-20,20"/>
<path class="st0" d="M300,340l20,20"/>
<path class="st0" d="M300,360l20,20"/>
<path class="st0" d="M320,380l-20,20"/>
<path class="st0" d="M340,0l-20,20"/>
<path class="st0" d="M320,20l20,20"/>
<path class="st0" d="M320,40l20,20"/>
<path class="st0" d="M320,60l20,20"/>
<path class="st0" d="M320,80l20,20"/>
<path class="st0" d="M320,100l20,20"/>
<path class="st0" d="M320,120l20,20"/>
<path class="st0" d="M340,140l-20,20"/>
<path class="st0" d="M320,160l20,20"/>
<path class="st0" d="M340,180l-20,20"/>
<path class="st0" d="M320,200l20,20"/>
<path class="st0" d="M320,220l20,20"/>
<path class="st0" d="M320,240l20,20"/>
<path class="st0" d="M340,260l-20,20"/>
<path class="st0" d="M320,280l20,20"/>
<path class="st0" d="M320,300l20,20"/>
<path class="st0" d="M340,320l-20,20"/>
<path class="st0" d="M320,340l20,20"/>
<path class="st0" d="M340,360l-20,20"/>
<path class="st0" d="M320,380l20,20"/>
<path class="st0" d="M340,0l20,20"/>
<path class="st0" d="M360,20l-20,20"/>
<path class="st0" d="M340,40l20,20"/>
<path class="st0" d="M360,60l-20,20"/>
<path class="st0" d="M340,80l20,20"/>
<path class="st0" d="M360,100l-20,20"/>
<path class="st0" d="M340,120l20,20"/>
<path class="st0" d="M340,140l20,20"/>
<path class="st0" d="M360,160l-20,20"/>
<path class="st0" d="M360,180l-20,20"/>
<path class="st0" d="M340,200l20,20"/>
<path class="st0" d="M340,220l20,20"/>
<path class="st0" d="M340,240l20,20"/>
<path class="st0" d="M340,260l20,20"/>
<path class="st0" d="M360,320l-20,20"/>
<path class="st0" d="M360,340l-20,20"/>
<path class="st0" d="M360,360l-20,20"/>
<path class="st0" d="M360,380l-20,20"/>
<path class="st0" d="M380,0l-20,20"/>
<path class="st0" d="M380,20l-20,20"/>
<path class="st0" d="M380,40l-20,20"/>
<path class="st0" d="M380,60l-20,20"/>
<path class="st0" d="M360,80l20,20"/>
<path class="st0" d="M380,100l-20,20"/>
<path class="st0" d="M380,120l-20,20"/>
<path class="st0" d="M380,140l-20,20"/>
<path class="st0" d="M380,160l-20,20"/>
<path class="st0" d="M360,180l20,20"/>
<path class="st0" d="M380,200l-20,20"/>
<path class="st0" d="M360,220l20,20"/>
<path class="st0" d="M360,240l20,20"/>
<path class="st0" d="M360,260l20,20"/>
<path class="st0" d="M360,320l20,20"/>
<path class="st0" d="M380,340l-20,20"/>
<path class="st0" d="M360,360l20,20"/>
<path class="st0" d="M380,380l-20,20"/>
<path class="st0" d="M380,0l20,20"/>
<path class="st0" d="M380,20l20,20"/>
<path class="st0" d="M400,40l-20,20"/>
<path class="st0" d="M380,60l20,20"/>
<path class="st0" d="M400,80l-20,20"/>
<path class="st0" d="M400,100l-20,20"/>
<path class="st0" d="M400,120l-20,20"/>
<path class="st0" d="M380,140l20,20"/>
<path class="st0" d="M400,160l-20,20"/>
<path class="st0" d="M380,180l20,20"/>
<path class="st0" d="M380,200l20,20"/>
<path class="st0" d="M400,220l-20,20"/>
<path class="st0" d="M380,240l20,20"/>
<path class="st0" d="M400,260l-20,20"/>
<path class="st0" d="M400,280l-20,20"/>
<path class="st0" d="M380,300l20,20"/>
<path class="st0" d="M380,320l20,20"/>
<path class="st0" d="M380,340l20,20"/>
<path class="st0" d="M380,360l20,20"/>
<path class="st0" d="M400,380l-20,20"/>
<path class="st1" d="M160,60l20,20l20-20l-20-20L160,60L160,60z"/>
<path class="st1" d="M120,220l20,20l20-20l-20-20L120,220L120,220z"/>
<path class="st1" d="M60,280l20,20l20-20l-20-20L60,280L60,280z"/>
<path class="st1" d="M280,300l20,20l20-20l-20-20L280,300L280,300z"/>
<path class="st1" d="M340,300l20,20l20-20l-20-20L340,300L340,300z"/>
<path class="st1" d="M80,120l20,20l20-20l-20-20L80,120L80,120z"/>
</svg>
